<svg xmlns="http://www.w3.org/2000/svg" width="24" height="24" viewBox="0 0 24 24">

  <defs>
    <linearGradient id="pb" x1="3" y1="3" x2="21" y2="21" gradientUnits="userSpaceOnUse">
      <stop offset="0" stop-color="#2B6CFF"/>
      <stop offset="1" stop-color="#B200FF"/>
    </linearGradient>
    <linearGradient id="pb2" x1="21" y1="3" x2="3" y2="21" gradientUnits="userSpaceOnUse">
      <stop offset="0" stop-color="#00D5FF"/>
      <stop offset="1" stop-color="#8A2BFF"/>
    </linearGradient>
    <filter id="softGlow" x="-30%" y="-30%" width="160%" height="160%">
      <feGaussianBlur stdDeviation="0.7" result="b"/>
      <feMerge>
        <feMergeNode in="b"/>
        <feMergeNode in="SourceGraphic"/>
      </feMerge>
    </filter>
  </defs>


  <circle cx="12" cy="12" r="10" fill="#0B0E1C"/>
  <circle cx="12" cy="12" r="8.7" fill="#10163A"/>
  <circle cx="12" cy="12" r="10" fill="none" stroke="url(#pb)" stroke-width="1.2" filter="url(#softGlow)"/>


  <circle cx="6.2" cy="7.2" r="0.45" fill="#2B6CFF" opacity="0.9"/>
  <circle cx="17.8" cy="7.2" r="0.45" fill="#B200FF" opacity="0.9"/>
  <circle cx="6.2" cy="16.8" r="0.45" fill="#00D5FF" opacity="0.9"/>
  <circle cx="17.8" cy="16.8" r="0.45" fill="#8A2BFF" opacity="0.9"/>

  <path d="M8.2 15.5c-1.6 0-2.9-1.3-2.9-2.9 0-1.2.7-2.2 1.6-2.7l1-1.7c.2-.4.6-.7 1.1-.7h6c.5 0 .9.3 1.1.7l1 1.7c.9.5 1.6 1.5 1.6 2.7 0 1.6-1.3 2.9-2.9 2.9H8.2z"
        fill="url(#pb2)" filter="url(#softGlow)"/>
  <path d="M12.7 7.2l-1.6 3h1.3l-1.1 2.6 2.3-3.3h-1.4z" fill="url(#pb)" opacity="0.95" filter="url(#softGlow)"/>
  <circle cx="9.0" cy="12.3" r="0.85" fill="#0B0E1C"/>
  <circle cx="15.0" cy="12.3" r="0.85" fill="#0B0E1C"/>
</svg>