<svg xmlns="http://www.w3.org/2000/svg" width="24" height="24" viewBox="0 0 24 24">
  <defs>
    <linearGradient id="pb" x1="2" y1="2" x2="22" y2="22" gradientUnits="userSpaceOnUse">
      <stop offset="0" stop-color="#1E3A8A"/>
      <stop offset="0.55" stop-color="#3B82F6"/>
      <stop offset="1" stop-color="#B000FF"/>
    </linearGradient>
    <linearGradient id="hot" x1="6" y1="4" x2="18" y2="20" gradientUnits="userSpaceOnUse">
      <stop offset="0" stop-color="#00E5FF"/>
      <stop offset="0.45" stop-color="#7C4DFF"/>
      <stop offset="1" stop-color="#FF2DF7"/>
    </linearGradient>
    <filter id="glow" x="-40%" y="-40%" width="180%" height="180%">
      <feGaussianBlur stdDeviation="0.9" result="b"/>
      <feMerge>
        <feMergeNode in="b"/>
        <feMergeNode in="SourceGraphic"/>
      </feMerge>
    </filter>
  </defs>

  <!-- Badge base: aggressive hex panel -->
  <path d="M12 1.8 20.3 6.6v10.8L12 22.2 3.7 17.4V6.6L12 1.8z" fill="url(#pb)"/>
  <!-- Inner cut to create depth -->
  <path d="M12 4.1 18.2 7.7v8.6L12 19.9 5.8 16.3V7.7L12 4.1z" fill="#070B1A" opacity="0.85"/>

  <!-- Neon X with chamfered ends -->
  <g filter="url(#glow)">
    <path fill="url(#hot)" d="M8.05 7.6c-.28 0-.55.11-.74.31l-.96.96c-.41.41-.41 1.07 0 1.48l2.65 2.65-2.65 2.65c-.41.41-.41 1.07 0 1.48l.96.96c.41.41 1.07.41 1.48 0l2.65-2.65 2.65 2.65c.41.41 1.07.41 1.48 0l.96-.96c.41-.41.41-1.07 0-1.48L15 12.99l2.65-2.65c.41-.41.41-1.07 0-1.48l-.96-.96c-.41-.41-1.07-.41-1.48 0l-2.65 2.65-2.65-2.65c-.2-.2-.46-.31-.74-.31z"/>
    <!-- Little "spark" ticks -->
    <path d="M18.7 9.1l1.1-.4-.4 1.1-1.1.4.4-1.1zM5.7 14.9l1.1-.4-.4 1.1-1.1.4.4-1.1zM17.8 15.8l.9.9-1.2.2-.9-.9 1.2-.2zM6.2 8.2l.9.9-1.2.2-.9-.9 1.2-.2z" fill="#00E5FF" opacity="0.9"/>
  </g>

  <!-- Micro “rivet” dots (car-panel vibe) -->
  <circle cx="7.1" cy="6.7" r="0.55" fill="#2D7DFF" opacity="0.9"/>
  <circle cx="16.9" cy="6.7" r="0.55" fill="#B000FF" opacity="0.9"/>
  <circle cx="7.1" cy="17.3" r="0.55" fill="#B000FF" opacity="0.9"/>
  <circle cx="16.9" cy="17.3" r="0.55" fill="#2D7DFF" opacity="0.9"/>
</svg>
